<svg width="150" height="214" viewBox="0 0 150 214" fill="none" xmlns="http://www.w3.org/2000/svg">
<path d="M5.464 174.544C43.288 145.552 68.152 123.952 80.056 109.744C92.152 95.344 98.2 81.424 98.2 67.984C98.2 50.32 88.408 41.488 68.824 41.488C53.08 41.488 34.456 48.4 12.952 62.224L0.568001 23.056C10.36 16.528 22.168 11.248 35.992 7.21598C50.008 2.99199 63.352 0.879997 76.024 0.879997C99.256 0.879997 117.112 6.44799 129.592 17.584C142.072 28.528 148.312 43.792 148.312 63.376C148.312 80.272 142.936 96.496 132.184 112.048C121.624 127.408 100.792 148.048 69.688 173.968V174.544H149.464V214H5.464V174.544Z" fill="#0F68E4" fill-opacity="0.15"/>
</svg>
