<svg width="147" height="214" viewBox="0 0 147 214" fill="none" xmlns="http://www.w3.org/2000/svg">
<path d="M3.6 0.759995H143.856V40.216L87.696 86.584V87.16H91.44C108.144 87.16 121.488 92.344 131.472 102.712C141.648 113.08 146.736 127.096 146.736 144.76C146.736 167.032 139.92 184.12 126.288 196.024C112.656 207.928 93.072 213.88 67.536 213.88C43.152 213.88 20.88 208.408 0.720001 197.464L12.816 160.024C32.208 170.008 49.104 175 63.504 175C74.64 175 83.28 172.408 89.424 167.224C95.568 162.04 98.64 154.84 98.64 145.624C98.64 136.216 94.896 129.592 87.408 125.752C80.112 121.72 66.384 119.704 46.224 119.704H31.824V86.872L85.104 40.792V40.216H3.6V0.759995Z" fill="#0F68E4" fill-opacity="0.15"/>
</svg>
