<svg width="60" height="60" viewBox="0 0 60 60" fill="none" xmlns="http://www.w3.org/2000/svg">
<path d="M59 0H41C40.7348 0 40.4804 0.105357 40.2929 0.292893C40.1054 0.48043 40 0.734784 40 1V13C40 13.2652 40.1054 13.5196 40.2929 13.7071C40.4804 13.8946 40.7348 14 41 14H43V17C43 17.181 43.0491 17.3587 43.1421 17.514C43.2352 17.6693 43.3686 17.7965 43.5282 17.8819C43.6879 17.9673 43.8677 18.0078 44.0485 17.999C44.2293 17.9902 44.4044 17.9325 44.555 17.832L50.3 14H59C59.2652 14 59.5196 13.8946 59.7071 13.7071C59.8946 13.5196 60 13.2652 60 13V1C60 0.734784 59.8946 0.48043 59.7071 0.292893C59.5196 0.105357 59.2652 0 59 0ZM58 12H50C49.8025 12.0003 49.6095 12.0587 49.445 12.168L45 15.131V13C45 12.7348 44.8946 12.4804 44.7071 12.2929C44.5196 12.1054 44.2652 12 44 12H42V2H58V12Z" fill="#0F68E4"/>
<path d="M54 4H56V6H54V4Z" fill="#0F68E4"/>
<path d="M48 4H52V6H48V4Z" fill="#0F68E4"/>
<path d="M44 4H46V6H44V4Z" fill="#0F68E4"/>
<path d="M44 8H50V10H44V8Z" fill="#0F68E4"/>
<path d="M39.949 32H40C40.7956 32 41.5587 31.6839 42.1213 31.1213C42.6839 30.5587 43 29.7956 43 29V28C42.9999 27.4116 42.8267 26.8362 42.502 26.3454C42.1773 25.8547 41.7155 25.4703 41.174 25.24L42.707 23.707C42.8946 23.5195 42.9999 23.2652 43 23V21C42.9971 18.6139 42.0479 16.3265 40.3607 14.6393C38.6735 12.9521 36.3861 12.0029 34 12H26C23.6139 12.0029 21.3265 12.9521 19.6393 14.6393C17.9521 16.3265 17.0029 18.6139 17 21V23C17.0001 23.2652 17.1054 23.5195 17.293 23.707L18.826 25.24C18.2845 25.4703 17.8227 25.8547 17.498 26.3454C17.1733 26.8362 17.0001 27.4116 17 28V29C17 29.7956 17.3161 30.5587 17.8787 31.1213C18.4413 31.6839 19.2044 32 20 32H20.051C20.2986 34.4669 21.4538 36.7538 23.2923 38.417C25.1309 40.0803 27.5217 41.0013 30.001 41.0013C32.4803 41.0013 34.8711 40.0803 36.7097 38.417C38.5482 36.7538 39.7034 34.4669 39.951 32H39.949ZM41 29C41 29.2652 40.8946 29.5196 40.7071 29.7071C40.5196 29.8946 40.2652 30 40 30V27C40.2652 27 40.5196 27.1054 40.7071 27.2929C40.8946 27.4804 41 27.7348 41 28V29ZM19 21C19.0021 19.1441 19.7403 17.3649 21.0526 16.0526C22.3649 14.7403 24.1441 14.0021 26 14H34C35.8559 14.0021 37.6351 14.7403 38.9474 16.0526C40.2597 17.3649 40.9979 19.1441 41 21V22.586L40 23.586V23C40 22.7806 39.9279 22.5672 39.7947 22.3928C39.6615 22.2184 39.4747 22.0927 39.263 22.035L28.263 19.035C28.045 18.9764 27.8137 18.9926 27.606 19.081L20.606 22.081C20.4262 22.1581 20.2729 22.2863 20.1652 22.4496C20.0574 22.613 20 22.8043 20 23V23.586L19 22.586V21ZM19 29V28C19 27.7348 19.1054 27.4804 19.2929 27.2929C19.4804 27.1054 19.7348 27 20 27V30C19.7348 30 19.4804 29.8946 19.2929 29.7071C19.1054 29.5196 19 29.2652 19 29ZM30 39C27.879 38.9976 25.8456 38.154 24.3458 36.6542C22.846 35.1544 22.0024 33.121 22 31V23.659L28.073 21.059L38 23.764V31C37.9976 33.121 37.154 35.1544 35.6542 36.6542C34.1544 38.154 32.121 38.9976 30 39Z" fill="#0F68E4"/>
<path d="M36 41H24C22.6544 40.9996 21.3129 41.1482 20 41.443V39C20 38.7348 19.8946 38.4805 19.7071 38.2929C19.5196 38.1054 19.2652 38 19 38H17V35C17 34.819 16.9509 34.6413 16.8579 34.486C16.7648 34.3307 16.6314 34.2036 16.4718 34.1182C16.3121 34.0327 16.1323 33.9923 15.9515 34.0011C15.7707 34.0098 15.5956 34.0676 15.445 34.168L9.7 38H1C0.734784 38 0.48043 38.1054 0.292893 38.2929C0.105357 38.4805 0 38.7348 0 39V51C0 51.2652 0.105357 51.5196 0.292893 51.7071C0.48043 51.8947 0.734784 52 1 52H7.423C6.48608 54.215 6.00224 56.5951 6 59C6 59.2652 6.10536 59.5196 6.29289 59.7071C6.48043 59.8947 6.73478 60 7 60H53C53.2652 60 53.5196 59.8947 53.7071 59.7071C53.8946 59.5196 54 59.2652 54 59C54 54.2261 52.1036 49.6478 48.7279 46.2721C45.3523 42.8965 40.7739 41 36 41ZM34.8 43L33.135 52H26.867L25.2 43H34.8ZM2 40H10C10.1975 39.9997 10.3905 39.9413 10.555 39.832L15 36.869V39C15 39.2652 15.1054 39.5196 15.2929 39.7071C15.4804 39.8947 15.7348 40 16 40H18V50H2V40ZM8.03 58C8.1567 55.9132 8.70077 53.8729 9.63 52H19C19.2652 52 19.5196 51.8947 19.7071 51.7071C19.8946 51.5196 20 51.2652 20 51V43.51C21.0394 43.2449 22.1027 43.0841 23.174 43.03L25.051 53.182C25.0935 53.4119 25.2153 53.6196 25.395 53.769C25.5748 53.9185 25.8012 54.0002 26.035 54H33.965C34.1988 54.0002 34.4252 53.9185 34.605 53.769C34.7847 53.6196 34.9065 53.4119 34.949 53.182L36.825 43.04C40.7472 43.2349 44.46 44.8684 47.2537 47.6282C50.0475 50.388 51.7262 54.0805 51.969 58H8.03Z" fill="#0F68E4"/>
<path d="M52 8H56V10H52V8Z" fill="#0F68E4"/>
<path d="M1 10H11.7L17.448 13.832C17.5986 13.9317 17.7733 13.9887 17.9537 13.9971C18.1341 14.0054 18.3133 13.9648 18.4725 13.8795C18.6316 13.7942 18.7647 13.6674 18.8576 13.5125C18.9504 13.3577 18.9997 13.1806 19 13V10H21C21.2652 10 21.5196 9.89464 21.7071 9.70711C21.8946 9.51957 22 9.26522 22 9V1C22 0.734784 21.8946 0.48043 21.7071 0.292893C21.5196 0.105357 21.2652 0 21 0H1C0.734784 0 0.48043 0.105357 0.292893 0.292893C0.105357 0.48043 0 0.734784 0 1V9C0 9.26522 0.105357 9.51957 0.292893 9.70711C0.48043 9.89464 0.734784 10 1 10ZM2 2H20V8H18C17.7348 8 17.4804 8.10536 17.2929 8.29289C17.1054 8.48043 17 8.73478 17 9V11.131L12.555 8.168C12.3905 8.05874 12.1975 8.00031 12 8H2V2Z" fill="#0F68E4"/>
<path d="M4 4H8V6H4V4Z" fill="#0F68E4"/>
<path d="M10 4H14V6H10V4Z" fill="#0F68E4"/>
<path d="M16 4H18V6H16V4Z" fill="#0F68E4"/>
<path d="M4 46H6V48H4V46Z" fill="#0F68E4"/>
<path d="M8 46H12V48H8V46Z" fill="#0F68E4"/>
<path d="M14 46H16V48H14V46Z" fill="#0F68E4"/>
<path d="M10 42H16V44H10V42Z" fill="#0F68E4"/>
<path d="M4 42H8V44H4V42Z" fill="#0F68E4"/>
</svg>
