<svg width="68" height="60" viewBox="0 0 68 60" fill="none" xmlns="http://www.w3.org/2000/svg">
<path d="M25.4429 14.7298H42.0569C42.9002 14.7298 43.584 13.9264 43.584 12.9354V1.79446C43.584 0.803379 42.9002 0 42.0569 0H25.4429C24.5996 0 23.9157 0.803379 23.9157 1.79446V12.9354C23.9157 13.9264 24.5996 14.7298 25.4429 14.7298ZM26.97 3.58892H40.5297V11.1409H26.97V3.58892Z" fill="#0F68E4"/>
<path d="M42.057 45.2701H25.4429C24.5996 45.2701 23.9157 46.0735 23.9157 47.0646V58.2055C23.9157 59.1966 24.5996 60 25.4429 60H42.0569C42.9002 60 43.584 59.1966 43.584 58.2055V47.0646C43.5842 46.0735 42.9003 45.2701 42.057 45.2701ZM40.5299 56.411H26.9702V48.8591H40.5299V56.411Z" fill="#0F68E4"/>
<path d="M65.9727 45.2701H49.3588C48.5155 45.2701 47.8316 46.0735 47.8316 47.0646V58.2055C47.8316 59.1966 48.5155 60 49.3588 60H65.9727C66.816 60 67.4999 59.1966 67.4999 58.2055V47.0646C67.4999 46.0735 66.816 45.2701 65.9727 45.2701ZM64.4456 56.411H50.8859V48.8591H64.4456V56.411Z" fill="#0F68E4"/>
<path d="M18.1411 45.2701H1.52715C0.683856 45.2701 0 46.0735 0 47.0646V58.2055C0 59.1966 0.683856 60 1.52715 60H18.1411C18.9844 60 19.6683 59.1966 19.6683 58.2055V47.0646C19.6683 46.0735 18.9844 45.2701 18.1411 45.2701ZM16.614 56.411H3.05429V48.8591H16.614V56.411Z" fill="#0F68E4"/>
<path d="M32.2228 35.2936V41.6812C32.2228 42.6722 32.9067 43.4756 33.75 43.4756C34.5932 43.4756 35.2771 42.6722 35.2771 41.6812V35.2936C35.2771 34.3025 34.5932 33.4991 33.75 33.4991C32.9067 33.4991 32.2228 34.3025 32.2228 35.2936Z" fill="#0F68E4"/>
<path d="M9.83422 43.4756C10.6775 43.4756 11.3614 42.6723 11.3614 41.6812V31.7944H56.1387V41.6812C56.1387 42.6723 56.8225 43.4756 57.6658 43.4756C58.5091 43.4756 59.193 42.6723 59.193 41.6812V30C59.193 29.0089 58.5091 28.2055 57.6658 28.2055H35.2771V18.3188C35.2771 17.3277 34.5932 16.5243 33.7499 16.5243C32.9067 16.5243 32.2228 17.3277 32.2228 18.3188V28.2055H9.83422C8.99092 28.2055 8.30707 29.0089 8.30707 30V41.6812C8.30707 42.6723 8.99077 43.4756 9.83422 43.4756Z" fill="#0F68E4"/>
</svg>
