<svg width="60" height="60" viewBox="0 0 60 60" fill="none" xmlns="http://www.w3.org/2000/svg">
<path d="M2.00164 60H8.00658C9.11049 60 10.0082 59.1023 10.0082 57.9984V55.9967H32.6328C37.6609 55.9967 42.574 54.5876 46.8375 51.9234C53.2658 47.9051 57.7084 41.3186 59.0265 33.8525L59.4609 31.3925C59.655 30.2936 59.3558 29.1727 58.6382 28.318C57.9206 27.4633 56.8687 26.9729 55.7528 26.9729C55.1433 26.9729 54.5628 27.124 54.0444 27.3882V22.9696H55.0452C55.4496 22.9696 55.8159 22.7254 55.97 22.3521C56.1251 21.9778 56.0391 21.5474 55.7528 21.2612L47.7462 13.2546C47.3549 12.8633 46.7224 12.8633 46.3311 13.2546L44.0362 15.5495V1.9523C44.0362 1.39985 43.5888 0.951477 43.0354 0.951477H33.0271C32.4737 0.951477 32.0263 1.39985 32.0263 1.9523V12.9613H27.971C27.2094 11.286 26.6459 10.3062 26.1935 9.7377L28.7226 3.55662C29.0038 2.88106 28.8397 2.12144 28.3043 1.62203C27.7688 1.12162 26.9992 1.01253 26.3456 1.3388L24.4531 2.28457L23.2611 0.695266C22.9599 0.292936 22.4995 0.0407282 21.9981 0.00469863C21.4957 -0.0323318 21.0043 0.150819 20.645 0.508112L19.1227 2.02936L18.1229 0.695266C17.8206 0.291935 17.3603 0.0407282 16.8579 0.00469863C16.3564 -0.0323318 15.863 0.15182 15.5067 0.508112L13.5862 2.42869L10.6998 1.60401C10.0222 1.40985 9.30665 1.64004 8.86929 2.18749C8.43093 2.73494 8.36387 3.48656 8.69915 4.10006L11.7256 9.68766C9.60089 11.6072 7.00576 17.0007 7.00576 21.9017V24.9712C7.00576 28.2829 9.69897 30.9762 13.0107 30.9762H24.0197H33.0271H41.0337H51.4243L49.3105 35.2046L43.807 37.5636C43.1895 35.4989 41.2949 33.9786 39.0321 33.9786H24.6232C19.415 33.9786 14.4038 35.4138 10.0082 38.128V35.9803C10.0082 34.8764 9.11049 33.9786 8.00658 33.9786H2.00164C0.897738 33.9786 0 34.8764 0 35.9803V57.9984C0 59.1023 0.897738 60 2.00164 60ZM13.1878 4.39731C13.7933 4.57045 14.4469 4.40231 14.8912 3.95595L16.7057 2.14145L17.7066 3.47755C18.0098 3.87988 18.4712 4.13209 18.9736 4.16712C19.482 4.20015 19.9664 4.018 20.3217 3.6627L21.844 2.14145L22.9859 3.6627C23.4873 4.33526 24.396 4.55144 25.1497 4.17513L26.6059 3.44653L24.348 8.95806H21.6358L22.9128 6.40296L21.1224 5.50722L19.3979 8.95806H17.6435L16.2484 6.05567L14.4439 6.92338L15.4217 8.95806H13.6062L10.7608 3.70374L13.1878 4.39731ZM23.0189 13.9622V28.9745H13.0107C10.8029 28.9745 9.0074 27.179 9.0074 24.9712V21.9017C9.0074 16.5443 12.3231 11.5482 13.2719 10.9597H24.6082C24.7704 11.1559 25.1377 11.6823 25.7592 12.9613H24.0197C23.4663 12.9613 23.0189 13.4097 23.0189 13.9622ZM25.0206 14.963H32.0263V28.9745H25.0206V14.963ZM47.0387 15.3773L52.6292 20.9679H41.4481L47.0387 15.3773ZM34.028 2.95312H42.0345V17.5511L38.3245 21.2612C38.0383 21.5474 37.9522 21.9778 38.1073 22.3521C38.2614 22.7254 38.6277 22.9696 39.0321 22.9696H40.0329V28.9745H34.028V2.95312ZM42.0345 22.9696H52.0428V28.9745H50.0411V24.9712C50.0411 24.4188 49.5938 23.9704 49.0403 23.9704H45.037C44.4836 23.9704 44.0362 24.4188 44.0362 24.9712V28.9745H42.0345V22.9696ZM48.0395 28.9745H46.0378V25.972H48.0395V28.9745ZM24.6232 35.9803H39.0321C40.6874 35.9803 42.0345 37.3274 42.0345 38.9827C42.0345 40.6381 40.6874 41.9852 39.0321 41.9852H23.0189V43.9868H39.0321C41.5551 43.9868 43.6269 42.1033 43.9661 39.6723L50.4344 36.9C50.6526 36.8069 50.8308 36.6398 50.9359 36.4276L54.1745 29.9493C54.4768 29.3478 55.0803 28.9745 55.7528 28.9745C56.2752 28.9745 56.7687 29.2037 57.1049 29.605C57.4412 30.0064 57.5823 30.5308 57.4912 31.0452L57.0569 33.5052C55.8369 40.4139 51.7265 46.5079 45.7766 50.226C41.8314 52.692 37.2866 53.9951 32.6328 53.9951H10.0082V40.522C14.3308 37.5576 19.3689 35.9803 24.6232 35.9803ZM2.00164 35.9803H8.00658L8.00758 57.9984H2.00164V35.9803Z" fill="#0F68E4"/>
</svg>
