<svg width="60" height="60" viewBox="0 0 60 60" fill="none" xmlns="http://www.w3.org/2000/svg">
<path d="M60.0002 32.0001V28.0001C60.0002 27.4479 59.5525 27.0001 59.0002 27.0001H44.0002V7.00003C44.0002 6.44777 43.5524 6.00002 43.0002 6.00002H34.8891C36.2391 4.68677 37.0006 2.88339 37.0001 1C37.0001 0.447752 36.5524 0 36.0001 0C33.5392 0.00387501 31.2611 1.29975 30.0001 3.41301C28.7391 1.29975 26.461 0.00387501 24.0001 0C23.4478 0 23.0001 0.447752 23.0001 1C22.9996 2.88339 23.7611 4.68677 25.1111 6.00002H17.0001C16.4478 6.00002 16.0001 6.44777 16.0001 7.00003V27.0001H1C0.447752 27.0001 0 27.4479 0 28.0001V32.0001C0 32.5524 0.447752 33.0001 1 33.0001H33.8381L27.8381 35.0001H13C12.7348 35.0001 12.4805 35.1056 12.293 35.2931L8.00003 39.5861L6.70702 38.2931C6.31652 37.9028 5.68352 37.9028 5.29302 38.2931L0.293001 43.2932C-0.0973753 43.6837 -0.0973753 44.3167 0.293001 44.7072L15.2931 59.7072C15.6836 60.0976 16.3166 60.0976 16.7071 59.7072L21.7071 54.7072C22.0975 54.3167 22.0975 53.6837 21.7071 53.2932L21.5421 53.1282L27.3201 49.0002H47.0002C47.2504 49.0002 47.4917 48.9063 47.6762 48.7372L58.5502 38.7701C60.19 37.2693 60.4756 34.7906 59.2202 32.9561C59.6718 32.8592 59.996 32.462 60.0002 32.0001ZM34.8721 2.12801C34.4375 3.98639 32.9865 5.4374 31.1281 5.87202C31.5627 4.01364 33.0137 2.56263 34.8721 2.12801ZM28.8721 5.87202C27.0137 5.4374 25.5627 3.98639 25.1281 2.12801C26.9865 2.56263 28.4375 4.01364 28.8721 5.87202ZM18.0001 8.00003H42.0002V27.0001H31.2501L39.8001 15.6001C40.0668 15.2446 40.0668 14.7556 39.8001 14.4001L36.8001 10.4C36.6113 10.1483 36.3149 10 36.0001 10H24.0001C23.6853 10 23.389 10.1483 23.2001 10.4L20.2001 14.4001C19.9334 14.7556 19.9334 15.2446 20.2001 15.6001L28.7501 27.0001H18.0001V8.00003ZM25.3001 16.0001L27.4651 21.9531L23.0001 16.0001H25.3001ZM23.0001 14.0001L24.5001 12H27.5861L25.5861 14.0001H23.0001ZM27.4271 16.0001H32.5731L30.0001 23.0741L27.4271 16.0001ZM28.4141 14.0001L30.0001 12.414L31.5861 14.0001H28.4141ZM34.4141 14.0001L32.4141 12H35.5001L37.0001 14.0001H34.4141ZM37.0001 16.0001L32.5351 21.9531L34.7001 16.0001H37.0001ZM2.00001 31.0001V29.0001H58.0002V31.0001H2.00001ZM42.741 33.5746C42.6343 33.373 42.5105 33.1807 42.3712 33.0001H51.3702L44.6202 39.0001H41.0712C43.0305 37.963 43.7782 35.5339 42.741 33.5746ZM16.0001 57.5862L2.41401 44.0002L6.00002 40.4141L19.5861 54.0002L16.0001 57.5862ZM57.2002 37.3L46.6112 47H27.0001C26.7917 47 26.5887 47.065 26.4191 47.1861L20.1081 51.6941L9.41403 41L13.414 37H28.0001C28.1075 37.0001 28.2142 36.9829 28.3161 36.949L38.5461 33.539C39.6038 33.1841 40.7489 33.7539 41.1038 34.8115C41.4587 35.8691 40.8889 37.0143 39.8313 37.3691C39.7933 37.3819 39.7549 37.3935 39.7161 37.404L33.8661 39H31.0001V41H45.0002C45.2449 41.0001 45.4812 40.9104 45.6642 40.748L53.6792 33.624C54.1312 33.2219 54.7152 32.9997 55.3202 33H55.5272C56.8925 32.9951 58.0032 34.0979 58.0081 35.463C58.0106 36.1621 57.7171 36.8295 57.2002 37.3Z" fill="#0F68E4"/>
</svg>
