<svg width="62" height="60" viewBox="0 0 62 60" fill="none" xmlns="http://www.w3.org/2000/svg">
<path d="M58.8849 31.893L56.3772 31.0896C56.056 30.9867 55.8028 30.7303 55.7001 30.4037C55.1716 28.7233 54.374 27.1458 53.3295 25.7147C52.8535 25.0624 52.3241 24.4395 51.7458 23.8465C52.1158 22.2235 52.3169 20.3867 52.2909 18.7998C52.2536 16.5296 51.7999 15.1981 50.904 14.7289C50.4215 14.4759 48.9531 13.7072 41.0052 17.3455C40.817 17.4316 40.6412 17.5376 40.4785 17.6591C39.9426 17.5152 39.395 17.3819 38.844 17.2624C38.7776 17.2479 38.7092 17.2351 38.6424 17.221C39.2864 15.814 39.6625 14.286 39.7331 12.7085C39.7551 12.2168 39.3745 11.8004 38.8828 11.7786C38.3924 11.7542 37.9748 12.1371 37.9529 12.6288C37.8368 15.2225 36.7608 17.6629 34.9234 19.5005C33.8256 20.5983 32.5401 21.3958 31.1701 21.898C28.7942 21.5646 26.3742 21.5646 23.9984 21.898C22.6283 21.3958 21.3429 20.5983 20.2451 19.5005C18.2847 17.5401 17.2051 14.9337 17.2051 12.1613C17.2051 9.38882 18.2847 6.78252 20.2451 4.82218C22.2054 2.86172 24.812 1.78206 27.5842 1.78206C30.3565 1.78206 32.9631 2.86172 34.9234 4.82218C35.7112 5.60995 36.3622 6.50893 36.8583 7.49389C37.0796 7.93345 37.6154 8.11042 38.0549 7.88897C38.4944 7.66775 38.6713 7.13193 38.45 6.69248C37.8685 5.53749 37.1059 4.48437 36.1836 3.56196C33.8867 1.265 30.8327 0 27.5844 0C24.3361 0 21.2821 1.265 18.9851 3.56196C16.6882 5.85903 15.4232 8.91291 15.4232 12.1612C15.4232 15.4095 16.6882 18.4635 18.9851 20.7605C19.6477 21.423 20.3685 21.9928 21.1309 22.4702C21.1312 22.4702 21.1314 22.4701 21.1316 22.4701C20.5776 22.614 20.0278 22.7757 19.4841 22.9575C19.0174 23.1135 18.7656 23.6182 18.9216 24.0851C19.0775 24.5518 19.5825 24.8036 20.0491 24.6477C24.9082 23.0232 30.2605 23.0232 35.1196 24.6477C35.2134 24.679 35.3086 24.6938 35.4022 24.6938C35.7749 24.6938 36.1224 24.458 36.2471 24.0851C36.4032 23.6184 36.1513 23.1135 35.6846 22.9575C35.1409 22.7757 34.5911 22.6139 34.0371 22.4701C34.0373 22.4701 34.0376 22.4702 34.0378 22.4702C34.8004 21.9928 35.521 21.423 36.1836 20.7605C36.7698 20.1743 37.2872 19.5342 37.7364 18.8539C37.9821 18.9016 38.2259 18.9516 38.4661 19.0038C38.7861 19.0732 39.1046 19.1479 39.4203 19.2262C39.4104 19.2649 39.4002 19.3035 39.392 19.3429C38.9574 21.405 38.9857 23.2288 39.4758 24.7633C39.9163 26.1426 40.7114 27.2601 41.8387 28.0848C43.1673 29.0567 44.7713 29.4765 46.2243 29.4765C47.3178 29.4765 48.3259 29.2386 49.0664 28.8192C49.9039 28.3449 50.6056 27.3453 51.161 25.8446C51.4177 26.1443 51.6611 26.4513 51.8904 26.7655C52.8204 28.0395 53.5303 29.4435 54.0005 30.9385C54.2766 31.8166 54.962 32.5075 55.8338 32.7869L58.3416 33.5902C58.9996 33.801 59.4417 34.4067 59.4417 35.0976V39.2559C59.4417 39.9468 58.9996 40.5525 58.3416 40.7633L54.3012 42.0575C53.6548 42.2647 53.1077 42.7089 52.7608 43.3085C51.1734 46.0518 48.6777 48.322 45.3426 50.056C44.9573 50.2565 44.6904 50.6151 44.6101 51.0401L43.316 57.8922C43.2803 58.081 43.1149 58.2179 42.9227 58.2179H38.7152C38.523 58.2179 38.3577 58.0809 38.3219 57.8922L37.6051 54.1053C37.4641 53.3603 36.7652 52.8653 36.0131 52.9793C34.2007 53.2533 32.3331 53.3922 30.4626 53.3922C29.0709 53.3922 27.6971 53.3146 26.379 53.1614C25.6502 53.0776 24.9713 53.5744 24.8351 54.294L24.1539 57.8922C24.1182 58.081 23.9528 58.2179 23.7607 58.2179H19.5531C19.3609 58.2179 19.1956 58.0809 19.1593 57.8893L17.9133 51.4176C17.8331 51.0006 17.5712 50.6461 17.1944 50.4448C11.5093 47.4099 8.50431 42.3393 8.50431 35.7817C8.50431 32.4685 9.22919 29.5387 10.6587 27.0735C11.9927 24.773 13.9411 22.8709 16.4497 21.4198C16.8757 21.1734 17.0212 20.6283 16.7749 20.2023C16.5285 19.7764 15.9835 19.6311 15.5574 19.8772C10.6932 22.691 7.75935 27.0322 6.9516 32.5459V32.5457C6.86587 32.538 6.78001 32.5305 6.69451 32.5217C6.71006 31.9268 6.60244 31.3265 6.36807 30.7439C5.85114 29.459 4.7893 28.5315 3.66276 28.3812C2.77502 28.2624 1.93021 28.6393 1.34393 29.4139C0.493853 30.5372 0.632442 31.4261 0.898262 31.974C1.34703 32.8987 2.50059 33.5528 4.4149 33.964C4.36229 34.0428 4.30441 34.122 4.24103 34.2015C3.10996 35.6201 1.77739 35.9337 0.912133 35.9632C0.405605 35.9803 0 36.387 0 36.8939V36.8982C0 37.3982 0.394484 37.8059 0.893957 37.8288C0.957931 37.8317 1.02477 37.8333 1.09437 37.8333C2.18921 37.8333 3.9464 37.4295 5.63458 35.3126C5.90112 34.9785 6.11827 34.626 6.2852 34.2618C6.45333 34.2808 6.61488 34.2971 6.76961 34.3114C6.76961 34.311 6.76961 34.3108 6.76973 34.3104C6.73936 34.7933 6.7225 35.2832 6.7225 35.7817C6.7225 39.492 7.60701 42.8001 9.35128 45.6145C10.9596 48.2094 13.2623 50.334 16.1977 51.9318L17.409 58.2234C17.6038 59.2528 18.5055 59.9999 19.5531 59.9999H23.7607C24.8083 59.9999 25.71 59.2528 25.9048 58.2234L26.5206 54.97C27.7996 55.1055 29.1238 55.1741 30.4625 55.1741C32.2992 55.1741 34.1337 55.0462 35.9216 54.7936L36.5708 58.2237C36.7657 59.253 37.6674 60 38.7149 60H42.9225C43.9701 60 44.8718 59.2529 45.0668 58.2232L46.3267 51.5519C49.8863 49.6696 52.5694 47.197 54.303 44.2009C54.428 43.9849 54.6203 43.8265 54.8447 43.7546L58.8849 42.4605C60.2836 42.0122 61.2234 40.7244 61.2234 39.2557V35.0974C61.2234 33.6287 60.2836 32.341 58.8849 31.893ZM50.3751 21.3036C50.0322 24.2363 49.1123 26.7451 48.188 27.2686C47.1373 27.8637 44.7117 27.9786 42.8906 26.6464C41.0673 25.3126 40.4604 22.9142 41.1354 19.7102C41.1354 19.7101 41.1354 19.7101 41.1354 19.7101C41.2032 19.3883 41.4319 19.1099 41.7469 18.9657C46.2076 16.9238 48.7794 16.256 49.7348 16.256C49.879 16.256 49.9864 16.2712 50.0579 16.2992C50.3449 16.605 50.7213 18.3438 50.3751 21.3036ZM2.50167 31.1959C2.40948 31.0058 2.62711 30.6716 2.7651 30.4891C2.9838 30.2002 3.18529 30.1412 3.33751 30.1412C3.36968 30.1412 3.39969 30.1438 3.42719 30.1475C3.83686 30.2021 4.41083 30.653 4.71492 31.4088C4.78654 31.5867 4.87958 31.8815 4.90134 32.2491C3.6679 31.9935 2.70961 31.6251 2.50167 31.1959Z" fill="#0F68E4"/>
</svg>
