<svg width="50" height="50" viewBox="0 0 50 50" fill="none" xmlns="http://www.w3.org/2000/svg">
<path d="M13.1836 0C9.92598 0 7.32422 2.73496 7.32422 5.95703C7.32422 9.18789 9.95273 11.8164 13.1836 11.8164C16.4145 11.8164 19.043 9.18789 19.043 5.95703C19.043 2.73242 16.4379 0 13.1836 0ZM13.1836 8.88672C11.5682 8.88672 10.2539 7.57246 10.2539 5.95703C10.2539 4.31602 11.5955 2.92969 13.1836 2.92969C14.7717 2.92969 16.1133 4.31602 16.1133 5.95703C16.1133 7.57246 14.799 8.88672 13.1836 8.88672Z" fill="#0F68E4"/>
<path d="M45.6055 0H24.9023C22.4792 0 20.5078 1.97139 20.5078 4.39453V14.3911L19.2204 13.1038C18.3903 12.2736 17.2868 11.8164 16.1133 11.8164H13.1836C12.5626 11.8164 7.94521 11.8164 7.32422 11.8164C3.28564 11.8164 0 15.1021 0 19.1406C0 19.9735 0 26.7266 0 27.9297C0 30.3528 1.97139 32.3242 4.39453 32.3242C4.90791 32.3242 5.40107 32.2357 5.85938 32.0732V45.6055C5.85938 48.0286 7.83076 50 10.2539 50C11.3784 50 12.4056 49.5755 13.1836 48.8783C13.9616 49.5755 14.9888 50 16.1133 50C18.5364 50 20.5078 48.0286 20.5078 45.6055V26.2152C21.6278 26.6103 22.8686 26.5342 23.9381 26.0013L28.8702 23.5352H45.6055C48.0286 23.5352 50 21.5638 50 19.1406V4.39453C50 1.97139 48.0286 0 45.6055 0ZM28.4872 20.4511L22.6296 23.3799C22.0801 23.6537 21.3976 23.5664 20.9369 23.1059L20.0789 22.2478C19.173 21.3419 17.5821 21.958 17.5782 23.279C17.5782 23.2805 17.578 23.2818 17.578 23.2833V45.6055C17.578 46.4132 16.9209 47.0703 16.1132 47.0703C15.3055 47.0703 14.6483 46.4132 14.6483 45.6055V30.8594C14.6483 30.0504 13.9925 29.3945 13.1835 29.3945C12.3745 29.3945 11.7187 30.0504 11.7187 30.8594V45.6055C11.7187 46.4132 11.0615 47.0703 10.2538 47.0703C9.44609 47.0703 8.78897 46.4132 8.78897 45.6055V27.9297C8.78897 26.8252 8.78897 20.0434 8.78897 19.1406C8.78897 18.3316 8.13311 17.6758 7.32412 17.6758C6.51514 17.6758 5.85928 18.3316 5.85928 19.1406C5.85928 19.9735 5.85928 26.7266 5.85928 27.9297C5.85928 28.7374 5.20215 29.3945 4.39443 29.3945C3.58672 29.3945 2.92959 28.7374 2.92959 27.9297C2.92969 26.8252 2.92969 20.0434 2.92969 19.1406C2.92969 16.7175 4.90107 14.7461 7.32422 14.7461C8.42871 14.7461 15.2105 14.7461 16.1133 14.7461C16.5043 14.7461 16.8721 14.8985 17.1488 15.1754L21.5147 19.5413C21.9604 19.9871 22.6417 20.0976 23.2056 19.8157L27.1771 17.8299C27.9041 17.4661 28.7802 17.7602 29.1424 18.4854C29.5047 19.2101 29.2119 20.0888 28.4872 20.4511ZM47.0703 19.1406C47.0703 19.9483 46.4132 20.6055 45.6055 20.6055H31.9745C31.9834 20.5804 31.9932 20.5558 32.0016 20.5305C32.2125 19.8977 32.2758 19.2396 32.1951 18.5969L40.2059 14.5915C40.9295 14.2297 41.2228 13.3498 40.8609 12.6262C40.4991 11.9025 39.6191 11.6092 38.8956 11.9711L30.8854 15.9763C29.602 14.7349 27.6028 14.3408 25.8665 15.2098L23.4375 16.4243V4.39453C23.4375 3.58682 24.0946 2.92969 24.9023 2.92969H45.6055C46.4132 2.92969 47.0703 3.58682 47.0703 4.39453V19.1406Z" fill="#0F68E4"/>
</svg>
