<svg width="50" height="50" viewBox="0 0 50 50" fill="none" xmlns="http://www.w3.org/2000/svg">
<path d="M44.7559 0.244142C44.5996 0.0878916 44.3876 0 44.1667 0H37.5C37.0398 0 36.6667 0.373125 36.6667 0.833333V14.1667C36.6667 14.6269 37.0398 15 37.5 15H42.5V17.5H25.8333V15H30.8333C31.2935 15 31.6667 14.6269 31.6667 14.1667V5.83333C31.6667 5.61238 31.5788 5.40039 31.4225 5.24414L26.4225 0.244142C26.2663 0.0878916 26.0543 0 25.8333 0H19.1667C18.7065 0 18.3333 0.373125 18.3333 0.833333V14.1667C18.3333 14.6269 18.7065 15 19.1667 15H24.1667V17.5H7.5V15H12.5C12.9602 15 13.3333 14.6269 13.3333 14.1667V5.83333C13.3333 5.61238 13.2454 5.40039 13.0892 5.24414L8.08919 0.244142C7.93294 0.0878916 7.72095 0 7.5 0H0.833333C0.373125 0 0 0.373125 0 0.833333V14.1667C0 14.6269 0.373125 15 0.833333 15H5.83333V18.3333C5.83333 18.7935 6.20646 19.1667 6.66667 19.1667H24.1667V21.6667H18.3333C17.8731 21.6667 17.5 22.0398 17.5 22.5V29.1667C17.5 29.6269 17.8731 30 18.3333 30H31.6667C32.1269 30 32.5 29.6269 32.5 29.1667V26.6667H39.1667C41.464 26.6667 43.3333 28.536 43.3333 30.8333C43.3333 33.1307 41.464 35 39.1667 35H35.345L36.4225 33.9225L35.2441 32.7441L32.7441 35.2441C32.5814 35.4069 32.5 35.6201 32.5 35.8333C32.5 36.0466 32.5814 36.2598 32.7441 36.4225L35.2441 38.9225L36.4225 37.7441L35.345 36.6667H39.1667C42.3832 36.6667 45 34.0499 45 30.8333C45 27.6168 42.3832 25 39.1667 25H32.5V22.5C32.5 22.0398 32.1269 21.6667 31.6667 21.6667H25.8333V19.1667H43.3333C43.7935 19.1667 44.1667 18.7935 44.1667 18.3333V15H49.1667C49.6269 15 50 14.6269 50 14.1667V5.83333C50 5.61238 49.9121 5.40039 49.7559 5.24414L44.7559 0.244142ZM20 1.66667H25.4883L28.8216 5H26.6667V3.33333H25V5.83333C25 6.29354 25.3731 6.66667 25.8333 6.66667H30V13.3333H20V1.66667ZM1.66667 1.66667H7.15495L10.4883 5H8.33333V3.33333H6.66667V5.83333C6.66667 6.29354 7.03979 6.66667 7.5 6.66667H11.6667V13.3333H1.66667V1.66667ZM30.8333 28.3333H19.1667V23.3333H30.8333V28.3333ZM38.3333 13.3333V1.66667H43.8216L47.1549 5H45V3.33333H43.3333V5.83333C43.3333 6.29354 43.7065 6.66667 44.1667 6.66667H48.3333V13.3333H38.3333Z" fill="#0F68E4"/>
<path d="M31.6667 31.6666H18.3333C17.8731 31.6666 17.5 32.0398 17.5 32.5V35H10.8333C7.61678 35 5 37.6167 5 40.8333C5 44.0498 7.61678 46.6666 10.8333 46.6666H14.6549L13.5775 47.7441L14.7559 48.9225L17.2559 46.4225C17.4186 46.2597 17.5 46.0465 17.5 45.8333C17.5 45.6201 17.4186 45.4069 17.2559 45.2441L14.7559 42.7441L13.5775 43.9225L14.6549 45H10.8333C8.53597 45 6.66667 43.1307 6.66667 40.8333C6.66667 38.5359 8.53597 36.6666 10.8333 36.6666H17.5V39.1666C17.5 39.6268 17.8731 40 18.3333 40H31.6667C32.1269 40 32.5 39.6268 32.5 39.1666V35.8333V32.5C32.5 32.0398 32.1269 31.6666 31.6667 31.6666ZM30.8333 38.3333H19.1667V33.3333H30.8333V38.3333Z" fill="#0F68E4"/>
<path d="M18.3333 50H31.6667C32.1269 50 32.5 49.6268 32.5 49.1666V42.5C32.5 42.0398 32.1269 41.6666 31.6667 41.6666H18.3333C17.8731 41.6666 17.5 42.0398 17.5 42.5V45.8333V49.1666C17.5 49.6268 17.8731 50 18.3333 50ZM19.1667 43.3333H30.8333V48.3333H19.1667V43.3333Z" fill="#0F68E4"/>
</svg>
