<svg width="60" height="60" viewBox="0 0 60 60" fill="none" xmlns="http://www.w3.org/2000/svg">
<path d="M13.602 28.3512C13.384 28.1332 13.0828 28.0078 12.7735 28.0078C12.4653 28.0078 12.1629 28.1331 11.9449 28.3512C11.727 28.5691 11.6016 28.8715 11.6016 29.1797C11.6016 29.4879 11.727 29.7902 11.9449 30.0081C12.1629 30.2262 12.4653 30.3516 12.7735 30.3516C13.0817 30.3516 13.384 30.2262 13.602 30.0081C13.8199 29.7902 13.9453 29.4879 13.9453 29.1797C13.9453 28.8715 13.8199 28.5691 13.602 28.3512Z" fill="#0F68E4"/>
<path d="M47.6628 32.193L44.9683 24.8734V23.6182C44.9683 22.4119 44.643 21.2259 44.0274 20.1885C42.6915 17.9367 40.1456 16.659 37.5419 16.9341L37.0757 16.9832C36.4883 17.0449 35.883 16.9754 35.3253 16.7818L34.1791 16.3838C32.89 15.9363 31.4636 15.9159 30.1627 16.3264L29.2847 16.6035C28.4136 16.8782 27.4646 16.8484 26.6123 16.5193C25.204 15.9757 23.6432 15.9491 22.217 16.4441L21.3631 16.7406C20.7452 16.9552 20.0766 17.0164 19.4302 16.9186C17.0823 16.5616 14.739 17.5211 13.3144 19.4209C12.2099 20.8941 11.6016 22.719 11.6016 24.5603V25.084C11.6016 25.7311 12.1262 26.2559 12.7735 26.2559C13.4207 26.2559 13.9453 25.7311 13.9453 25.084V24.5603C13.9453 23.2228 14.3873 21.897 15.1895 20.8272C16.0955 19.619 17.5861 19.0091 19.0784 19.236C20.0997 19.3911 21.1555 19.294 22.1318 18.955L22.9858 18.6585C23.8886 18.3448 24.8767 18.3618 25.7681 18.7061C27.1143 19.2259 28.6137 19.2731 29.9899 18.8388L30.8679 18.5618C31.6917 18.302 32.5946 18.315 33.4103 18.5981L34.5565 18.9962C35.4378 19.302 36.3937 19.4123 37.3215 19.3143L37.7878 19.265C39.4838 19.0874 41.1416 19.9181 42.0117 21.3846C42.4126 22.0604 42.6245 22.8327 42.6245 23.6185V34.4971C42.6245 36.1896 41.2475 37.5666 39.555 37.5666C38.2633 37.5666 37.2125 36.5158 37.2125 35.2243V26.5109C37.2125 25.8638 36.6878 25.339 36.0406 25.339C35.3934 25.339 34.8687 25.8638 34.8687 26.5109V35.2243C34.8687 36.5158 33.8179 37.5666 32.5263 37.5666H31.7991C30.5075 37.5666 29.4567 36.5158 29.4567 35.2243V26.5109C29.4567 25.8638 28.932 25.339 28.2848 25.339C27.6376 25.339 27.1129 25.8638 27.1129 26.5109V35.2243C27.1129 36.5158 26.0621 37.5666 24.7704 37.5666H24.0433C22.7516 37.5666 21.7008 36.5158 21.7008 35.2243V34.933V26.5109V26.2197C21.7008 25.5726 21.1762 25.0478 20.5289 25.0478C19.8817 25.0478 19.3571 25.5726 19.3571 26.2197V26.5109V34.933C19.3571 36.2247 18.3062 37.2755 17.0146 37.2755H16.8286C15.2386 37.2755 13.9451 35.982 13.9451 34.392V33.5741C13.9451 32.927 13.4205 32.4023 12.7732 32.4023C12.126 32.4023 11.6013 32.927 11.6013 33.5741V34.3918C11.6013 37.2741 13.9463 39.619 16.8286 39.619H17.0146C18.3449 39.619 19.5467 39.0609 20.4005 38.1675C21.2603 39.2296 22.5735 39.9102 24.0433 39.9102H24.7704C26.1688 39.9102 27.4254 39.2937 28.2848 38.3191C28.9747 39.1015 29.9207 39.6521 30.9908 39.839V40.5652C30.9908 42.4423 32.5178 43.9694 34.3949 43.9694H42.0352C44.8311 43.9694 47.284 42.0818 48 39.379C48.632 36.9937 48.5154 34.5087 47.6628 32.193ZM34.3952 41.6256C33.8104 41.6256 33.3347 41.15 33.3347 40.5652V39.9102H34.9305C36.1054 39.9102 37.1178 40.6161 37.5682 41.6256H34.3952ZM45.7346 38.7788C45.2905 40.4549 43.7694 41.6255 42.0355 41.6255H40.0273C39.8838 41.0013 39.6293 40.4191 39.2841 39.9018C39.3739 39.907 39.464 39.9102 39.5551 39.9102C42.54 39.9102 44.9683 37.4818 44.9683 34.497V31.6575L45.4636 33.0027C46.1489 34.864 46.2426 36.8614 45.7346 38.7788Z" fill="#0F68E4"/>
<path d="M59.1115 25.2472L54.3703 24.066C53.7622 21.557 52.7746 19.1744 51.4271 16.9653L53.9444 12.7777C54.2217 12.3164 54.1492 11.7257 53.7687 11.3452L48.6546 6.23099C48.2741 5.8506 47.6833 5.77806 47.2221 6.05532L43.0344 8.57263C40.8254 7.22521 38.4427 6.23755 35.9337 5.62946L34.7528 0.888635C34.6228 0.366446 34.1538 0 33.6158 0H26.3845C25.8463 0 25.3775 0.366446 25.2473 0.888635L24.0661 5.6297C21.5571 6.23779 19.1745 7.22544 16.9655 8.57287L12.7778 6.05556C12.3164 5.77829 11.7258 5.85071 11.3453 6.23122L6.23122 11.3454C5.85071 11.7259 5.77829 12.3167 6.05544 12.7779L8.57275 16.9655C7.22533 19.1746 6.23767 21.5573 5.62958 24.0663L0.888635 25.2472C0.366446 25.3772 0 25.8462 0 26.3842V33.6155C0 34.1537 0.366446 34.6226 0.888635 34.7526L5.62982 35.9337C6.2379 38.4427 7.22556 40.8254 8.57298 43.0345L6.05568 47.2221C5.77841 47.6833 5.85095 48.2741 6.23146 48.6546L11.3455 53.7688C11.726 54.1491 12.3167 54.2216 12.778 53.9444L16.9657 51.4271C19.1747 52.7746 21.5574 53.7622 24.0664 54.3703L25.2475 59.1114C25.3776 59.6336 25.8466 60 26.3847 60H33.616C34.1541 60 34.623 59.6336 34.7532 59.1114L35.9343 54.3703C38.4433 53.7622 40.826 52.7746 43.035 51.4271L47.2227 53.9444C47.6839 54.2215 48.2745 54.1492 48.6552 53.7688L53.7692 48.6546C54.1497 48.2741 54.2222 47.6833 53.945 47.2221L51.4277 43.0345C52.7751 40.8254 53.7628 38.4427 54.3709 35.9337L59.1121 34.7526C59.6343 34.6226 60.0007 34.1537 60.0007 33.6155V26.3842C60.0001 25.8462 59.6337 25.3772 59.1115 25.2472ZM57.6564 32.6999L53.104 33.8341C52.6687 33.9425 52.3336 34.2898 52.2408 34.7287C51.6631 37.4599 50.596 40.0345 49.0691 42.3812C48.8245 42.7571 48.8158 43.2397 49.0469 43.6241L51.464 47.645L47.645 51.4642L43.6239 49.047C43.2395 48.8158 42.757 48.8246 42.3811 49.0691C40.0344 50.596 37.4598 51.6631 34.7286 52.2408C34.2897 52.3336 33.9424 52.6686 33.834 53.104L32.6999 57.6564H27.3002L26.1661 53.104C26.0577 52.6686 25.7103 52.3336 25.2715 52.2408C22.5404 51.663 19.9657 50.596 17.6191 49.0691C17.243 48.8245 16.7604 48.8158 16.3762 49.047L12.3551 51.4642L8.53607 47.645L10.9532 43.6241C11.1843 43.2397 11.1756 42.7571 10.931 42.3812C9.40408 40.0346 8.33697 37.4599 7.75935 34.7287C7.66654 34.2898 7.33138 33.9425 6.89615 33.8341L2.34375 32.6999V27.3002L6.89615 26.166C7.33138 26.0576 7.66654 25.7103 7.75935 25.2714C8.33697 22.5402 9.40408 19.9656 10.931 17.6189C11.1756 17.243 11.1843 16.7604 10.9532 16.376L8.53607 12.3551L12.3551 8.53595L16.3762 10.9531C16.7604 11.1842 17.2431 11.1754 17.6191 10.931C19.9657 9.40408 22.5404 8.33697 25.2715 7.75935C25.7104 7.66654 26.0577 7.3315 26.1661 6.89615L27.3002 2.34375H32.6999L33.834 6.89615C33.9424 7.3315 34.2898 7.66654 34.7286 7.75935C37.4598 8.33709 40.0344 9.40408 42.3811 10.931C42.757 11.1755 43.2395 11.1842 43.6239 10.9531L47.645 8.53595L51.464 12.3551L49.0469 16.376C48.8158 16.7604 48.8245 17.243 49.0691 17.6189C50.596 19.9655 51.6631 22.5402 52.2408 25.2714C52.3336 25.7103 52.6687 26.0576 53.104 26.166L57.6564 27.3002V32.6999Z" fill="#0F68E4"/>
</svg>
