<svg width="20" height="21" viewBox="0 0 20 21" fill="none" xmlns="http://www.w3.org/2000/svg">
<path d="M10 0.778015C4.48613 0.778015 0 5.26391 0 10.778C0 16.2921 4.48613 20.778 10 20.778C15.5141 20.778 20 16.2921 20 10.778C20 5.26391 15.5139 0.778015 10 0.778015ZM10 19.3182C5.29102 19.3182 1.45984 15.487 1.45984 10.778C1.45984 6.06903 5.29102 2.23786 10 2.23786C14.709 2.23786 18.5402 6.06899 18.5402 10.7778C18.5402 15.487 14.709 19.3182 10 19.3182Z" fill="#BDBDBD"/>
<path d="M13.4064 10.778H10.2434V6.39844C10.2434 5.99528 9.91662 5.66852 9.51346 5.66852C9.1103 5.66852 8.78354 5.99528 8.78354 6.39844V11.5079C8.78354 11.9111 9.1103 12.2379 9.51346 12.2379H13.4064C13.8096 12.2379 14.1363 11.9111 14.1363 11.5079C14.1363 11.1048 13.8096 10.778 13.4064 10.778Z" fill="#BDBDBD"/>
</svg>
