<svg width="52" height="50" viewBox="0 0 52 50" fill="none" xmlns="http://www.w3.org/2000/svg">
<path d="M50.8621 43.1034H50V12.069C50 10.1645 48.4561 8.62069 46.5517 8.62069H43.1034V3.44828C43.1034 1.54386 41.5596 0 39.6552 0H18.9655C17.0611 0 15.5172 1.54386 15.5172 3.44828V4.31034H13.7931C11.8887 4.31034 10.3448 5.8542 10.3448 7.75862V8.62069H5.17241C3.268 8.62069 1.72414 10.1645 1.72414 12.069V43.1034H0.862069C0.385991 43.1034 0 43.4894 0 43.9655V46.5517C0 48.4561 1.54386 50 3.44828 50H48.2759C50.1803 50 51.7241 48.4561 51.7241 46.5517V43.9655C51.7241 43.4894 51.3381 43.1034 50.8621 43.1034ZM17.2414 3.44828C17.2414 2.49601 18.0133 1.72414 18.9655 1.72414H39.6552C40.6074 1.72414 41.3793 2.49601 41.3793 3.44828V17.2414C41.3793 18.1936 40.6074 18.9655 39.6552 18.9655H37.931C37.6597 18.9655 37.4042 19.0933 37.2414 19.3103L35.3448 21.8388L33.4483 19.3103C33.2854 19.0933 33.03 18.9655 32.7586 18.9655H18.9655C18.0133 18.9655 17.2414 18.1936 17.2414 17.2414V3.44828ZM12.069 7.75862C12.069 6.80636 12.8408 6.03448 13.7931 6.03448H15.5172V17.2414C15.5172 19.1458 17.0611 20.6897 18.9655 20.6897H30.1724V21.5517C30.1724 22.504 29.4005 23.2759 28.4483 23.2759H22.4138C22.1425 23.2759 21.887 23.4037 21.7241 23.6207L19.8276 26.1491L17.931 23.6207C17.7682 23.4037 17.5127 23.2759 17.2414 23.2759H13.7931C12.8408 23.2759 12.069 22.504 12.069 21.5517V7.75862ZM13.7931 25H16.8103L19.1379 28.1034C19.4236 28.4844 19.9639 28.5615 20.3448 28.2759C20.4101 28.2268 20.4682 28.1687 20.5172 28.1034L22.8448 25H28.4483C30.3527 25 31.8966 23.4561 31.8966 21.5517V20.6897H32.3276L34.6552 23.7931C34.9408 24.174 35.4811 24.2512 35.8621 23.9655C35.9274 23.9165 35.9855 23.8584 36.0345 23.7931L38.3621 20.6897H39.6552C41.5596 20.6897 43.1034 19.1458 43.1034 17.2414V13.7931H44.8276V37.931H41.3793V37.069C41.3789 35.6358 40.6662 34.2966 39.4776 33.4957C40.8404 32.1654 40.8668 29.9823 39.5366 28.6194C38.2064 27.2566 36.0233 27.2302 34.6603 28.5604C33.2975 29.8907 33.2711 32.0738 34.6013 33.4367C34.6207 33.4567 34.6404 33.4763 34.6603 33.4957C33.4718 34.2966 32.7591 35.6358 32.7586 37.069V37.931H18.9655V37.069C18.9651 35.6358 18.2524 34.2966 17.0638 33.4957C18.4266 32.1654 18.453 29.9823 17.1228 28.6194C15.7926 27.2566 13.6095 27.2302 12.2466 28.5604C10.8837 29.8907 10.8573 32.0738 12.1875 33.4367C12.2069 33.4567 12.2266 33.4763 12.2466 33.4957C11.058 34.2966 10.3453 35.6358 10.3448 37.069V37.931H6.89655V13.7931H10.3448V21.5517C10.3448 23.4561 11.8887 25 13.7931 25ZM37.069 34.4828C38.4973 34.4828 39.6552 35.6406 39.6552 37.069V37.931H34.4828V37.069C34.4828 35.6406 35.6406 34.4828 37.069 34.4828ZM35.3448 31.0345C35.3448 30.0822 36.1167 29.3103 37.069 29.3103C38.0212 29.3103 38.7931 30.0822 38.7931 31.0345C38.7931 31.9867 38.0212 32.7586 37.069 32.7586C36.1167 32.7586 35.3448 31.9867 35.3448 31.0345ZM14.6552 34.4828C16.0835 34.4828 17.2414 35.6406 17.2414 37.069V37.931H12.069V37.069C12.069 35.6406 13.2268 34.4828 14.6552 34.4828ZM12.931 31.0345C12.931 30.0822 13.7029 29.3103 14.6552 29.3103C15.6074 29.3103 16.3793 30.0822 16.3793 31.0345C16.3793 31.9867 15.6074 32.7586 14.6552 32.7586C13.7029 32.7586 12.931 31.9867 12.931 31.0345ZM3.44828 12.069C3.44828 11.1167 4.22015 10.3448 5.17241 10.3448H10.3448V12.069H6.03448C5.5584 12.069 5.17241 12.455 5.17241 12.931V38.7931C5.17241 39.2692 5.5584 39.6552 6.03448 39.6552H45.6897C46.1657 39.6552 46.5517 39.2692 46.5517 38.7931V12.931C46.5517 12.455 46.1657 12.069 45.6897 12.069H43.1034V10.3448H46.5517C47.504 10.3448 48.2759 11.1167 48.2759 12.069V43.1034H33.6207C33.392 43.1034 33.1728 43.1944 33.0112 43.356L31.5397 44.8276H20.1845L18.7129 43.356C18.5513 43.1944 18.3321 43.1034 18.1034 43.1034H3.44828V12.069ZM50 46.5517C50 47.504 49.2281 48.2759 48.2759 48.2759H3.44828C2.49601 48.2759 1.72414 47.504 1.72414 46.5517V44.8276H17.7466L19.2181 46.2991C19.3797 46.4608 19.5989 46.5517 19.8276 46.5517H31.8966C32.1252 46.5517 32.3444 46.4608 32.506 46.2991L33.9776 44.8276H50V46.5517Z" fill="#0F68E4"/>
</svg>
