<svg width="60" height="60" viewBox="0 0 60 60" fill="none" xmlns="http://www.w3.org/2000/svg">
<path d="M8.375 17.525C8.575 17.175 8.775 16.825 9 16.475C10.025 16.975 11.15 17.425 12.3 17.85C12.95 17.625 13.65 17.5 14.375 17.5H17.2C19.55 17.5 21.7 18.325 23.45 19.675C25.075 18.325 27.125 17.5 29.375 17.5H33.125C34.25 17.5 35.3 17.8 36.25 18.275C36.675 18.05 37.15 17.85 37.65 17.725C38.225 17.575 38.8 17.5 39.375 17.5C40.475 17.5 41.55 17.775 42.5 18.25C43.45 17.775 44.5 17.5 45.625 17.5C46.35 17.5 47.05 17.625 47.7 17.85C48.85 17.425 49.975 16.975 51 16.475C51.225 16.825 51.425 17.175 51.625 17.525C51.7 17.5 51.8 17.5 51.875 17.5H55.625C56.225 17.5 56.8 17.55 57.35 17.675C52.65 7.25 42.15 0 30 0C17.9 0 7.475 7.175 2.725 17.5H8.125C8.2 17.5 8.3 17.5 8.375 17.525ZM47.775 12.45C46.35 13.075 44.775 13.6 43.1 14.025C42.3 11.45 41.3 9.125 40.15 7.175C43.025 8.45 45.6 10.25 47.775 12.45ZM32.5 5.875C34.65 7.325 36.7 10.525 38.15 15.05C36.325 15.325 34.45 15.5 32.5 15.575V5.875ZM27.5 5.875V15.575C25.55 15.5 23.675 15.325 21.85 15.05C23.3 10.525 25.35 7.325 27.5 5.875ZM19.85 7.175C18.7 9.125 17.7 11.45 16.9 14.025C15.225 13.6 13.65 13.075 12.225 12.45C14.4 10.25 16.975 8.45 19.85 7.175ZM51.875 42.5C51.8 42.5 51.7 42.5 51.625 42.475C51.425 42.825 51.225 43.175 51 43.525C49.975 43.025 48.85 42.575 47.7 42.175C47.6 42.2 47.475 42.25 47.35 42.275C46.775 42.425 46.2 42.5 45.625 42.5C44.525 42.5 43.45 42.225 42.5 41.75C41.55 42.225 40.5 42.5 39.375 42.5C38.25 42.5 37.2 42.2 36.25 41.725C35.3 42.2 34.25 42.5 33.125 42.5H29.375C27.65 42.5 26.05 42 24.65 41.175C23.5 42.025 22.1 42.5 20.625 42.5C19.525 42.5 18.475 42.225 17.525 41.725C16.575 42.225 15.5 42.5 14.375 42.5C13.65 42.5 12.95 42.375 12.3 42.15C11.15 42.575 10.025 43.025 9 43.525C8.65 42.975 8.3 42.4 8 41.8C7.1 42.25 6.075 42.5 5 42.5C4.125 42.5 3.275 42.325 2.5 42.025C7.15 52.6 17.725 60 30 60C42.15 60 52.65 52.75 57.35 42.325C56.8 42.45 56.225 42.5 55.625 42.5H51.875ZM12.225 47.55C13.65 46.925 15.225 46.4 16.9 45.975C17.7 48.55 18.7 50.875 19.85 52.825C16.975 51.55 14.4 49.75 12.225 47.55ZM27.5 54.125C25.35 52.675 23.3 49.475 21.85 44.95C23.675 44.675 25.55 44.5 27.5 44.425V54.125ZM32.5 54.125V44.425C34.45 44.5 36.325 44.675 38.15 44.95C36.7 49.475 34.65 52.675 32.5 54.125ZM40.15 52.825C41.3 50.875 42.3 48.55 43.1 45.975C44.775 46.4 46.35 46.925 47.775 47.55C45.6 49.75 43.025 51.55 40.15 52.825Z" fill="#0F68E4"/>
<path d="M55.625 37.5H51.875C50.84 37.5 50 36.66 50 35.625V24.375C50 23.34 50.84 22.5 51.875 22.5H55.625C58.0375 22.5 60 24.4625 60 26.875V33.125C60 35.5375 58.0375 37.5 55.625 37.5ZM53.75 33.75H55.625C55.97 33.75 56.25 33.47 56.25 33.125V26.875C56.25 26.53 55.97 26.25 55.625 26.25H53.75V33.75Z" fill="#0F68E4"/>
<path d="M33.125 31.875H26.875C25.84 31.875 25 31.035 25 30C25 28.965 25.84 28.125 26.875 28.125H33.125C34.16 28.125 35 28.965 35 30C35 31.035 34.16 31.875 33.125 31.875Z" fill="#0F68E4"/>
<path d="M33.125 37.5H29.375C26.9625 37.5 25 35.5375 25 33.125V26.875C25 24.4625 26.9625 22.5 29.375 22.5H33.125C34.16 22.5 35 23.34 35 24.375C35 25.41 34.16 26.25 33.125 26.25H29.375C29.03 26.25 28.75 26.53 28.75 26.875V33.125C28.75 33.47 29.03 33.75 29.375 33.75H33.125C34.16 33.75 35 34.59 35 35.625C35 36.66 34.16 37.5 33.125 37.5Z" fill="#0F68E4"/>
<path d="M5 37.5C3.965 37.5 3.125 36.66 3.125 35.625V24.375C3.125 23.34 3.965 22.5 5 22.5C6.035 22.5 6.875 23.34 6.875 24.375V35.625C6.875 36.66 6.035 37.5 5 37.5Z" fill="#0F68E4"/>
<path d="M8.125 26.25H1.875C0.84 26.25 0 25.41 0 24.375C0 23.34 0.84 22.5 1.875 22.5H8.125C9.16 22.5 10 23.34 10 24.375C10 25.41 9.16 26.25 8.125 26.25Z" fill="#0F68E4"/>
<path d="M14.375 37.5C13.34 37.5 12.5 36.66 12.5 35.625V24.375C12.5 23.34 13.34 22.5 14.375 22.5H17.1875C20.1175 22.5 22.5 24.8825 22.5 27.8125C22.5 30.7425 20.1175 33.125 17.1875 33.125H16.25V35.625C16.25 36.66 15.41 37.5 14.375 37.5ZM16.25 29.375H17.1875C18.05 29.375 18.75 28.675 18.75 27.8125C18.75 26.95 18.05 26.25 17.1875 26.25H16.25V29.375Z" fill="#0F68E4"/>
<path d="M20.625 37.4999C20.1875 37.4999 19.7475 37.3474 19.3925 37.0349L14.3925 32.6599C13.6125 31.9774 13.5325 30.7924 14.215 30.0149C14.895 29.2374 16.0825 29.1549 16.86 29.8374L21.86 34.2124C22.64 34.8949 22.72 36.0799 22.0375 36.8574C21.665 37.2824 21.145 37.4999 20.625 37.4999Z" fill="#0F68E4"/>
<path d="M45.625 37.5C44.955 37.5 44.3225 37.14 43.985 36.535L41.25 31.61V35.6225C41.25 36.6575 40.41 37.4975 39.375 37.4975C38.34 37.4975 37.5 36.66 37.5 35.625V24.375C37.5 23.52 38.0775 22.775 38.905 22.56C39.73 22.35 40.6 22.7175 41.015 23.465L43.75 28.39V24.375C43.75 23.34 44.59 22.5 45.625 22.5C46.66 22.5 47.5 23.34 47.5 24.375V35.625C47.5 36.48 46.9225 37.225 46.095 37.44C45.9375 37.48 45.7825 37.5 45.625 37.5Z" fill="#0F68E4"/>
</svg>
