<svg width="50" height="50" viewBox="0 0 50 50" fill="none" xmlns="http://www.w3.org/2000/svg">
<path d="M39.2818 5.59227C35.1131 2.49736 30.166 0.862108 24.9754 0.862108C20.2425 0.862108 15.5405 2.22851 12.0409 4.57069V0.862108C12.0409 0.38623 11.6556 0 11.1808 0C10.706 0 10.3207 0.38623 10.3207 0.862108V6.28534C10.3207 6.61893 10.5133 6.92323 10.8152 7.06551C11.1172 7.20692 11.474 7.1621 11.7304 6.94823C15.0106 4.21718 19.9621 2.58613 24.9754 2.58613C29.7944 2.58613 34.3871 4.10507 38.2574 6.9784C38.4114 7.09217 38.5911 7.14735 38.7691 7.14735C39.0323 7.14735 39.292 7.02665 39.4606 6.79823C39.7437 6.41551 39.6637 5.87587 39.2818 5.59227Z" fill="#0F68E4"/>
<path d="M49.8838 11.2077C49.8838 10.7318 49.4985 10.3456 49.0237 10.3456H43.6131C43.2803 10.3456 42.9767 10.5386 42.8347 10.8413C42.6928 11.1438 42.7384 11.5016 42.9517 11.7586C45.6764 15.0465 47.3037 20.0086 47.3037 25.0344C47.3037 29.8646 45.7883 34.468 42.9216 38.3473C42.6387 38.73 42.7187 39.2696 43.1005 39.5533C43.2544 39.6671 43.4342 39.7223 43.6122 39.7223C43.8754 39.7223 44.1351 39.6016 44.3045 39.374C47.3922 35.1956 49.0237 30.2369 49.0237 25.0344C49.0237 20.2905 47.6614 15.5775 45.3237 12.0698H49.0237C49.4985 12.0698 49.8838 11.6836 49.8838 11.2077Z" fill="#0F68E4"/>
<path d="M39.0686 42.9353C38.7666 42.793 38.4097 42.8387 38.1534 43.0525C34.8739 45.7836 29.9226 47.4146 24.9092 47.4146C20.0894 47.4146 15.4967 45.8957 11.6264 43.0224C11.2446 42.7379 10.7062 42.819 10.4231 43.2017C10.1401 43.5844 10.2202 44.124 10.602 44.4077C14.7707 47.5025 19.7179 49.1379 24.9084 49.1379C29.6413 49.1379 34.3433 47.7715 37.8429 45.4293V49.1379C37.8429 49.6138 38.2282 50 38.703 50C39.1778 50 39.5631 49.6138 39.5631 49.1379V43.7154C39.5631 43.3818 39.3705 43.0774 39.0686 42.9353Z" fill="#0F68E4"/>
<path d="M6.93133 38.2422C4.20661 34.9544 2.57935 29.9923 2.57935 24.9664C2.57935 20.1362 4.09477 15.5328 6.96143 11.6535C7.24437 11.2708 7.16438 10.7312 6.78255 10.4475C6.40073 10.1639 5.86233 10.244 5.5793 10.6268C2.49166 14.8052 0.860107 19.7638 0.860107 24.9664C0.860107 29.7103 2.22334 34.4233 4.56009 37.931H0.860107C0.385334 37.931 0 38.3172 0 38.7931C0 39.269 0.385334 39.6552 0.860107 39.6552H6.27076C6.60358 39.6552 6.90804 39.4622 7.04824 39.1595C7.1902 38.8569 7.1446 38.4991 6.93133 38.2422Z" fill="#0F68E4"/>
<path d="M38.7014 22.4146H37.0406C36.6638 22.4146 36.3328 22.1792 36.2339 21.8421C35.9208 20.7732 35.6094 19.962 35.2834 19.3628C35.1131 19.0507 35.1803 18.6464 35.4459 18.3801L36.6216 17.2017C36.7834 17.0405 36.8736 16.8207 36.8736 16.5922C36.8736 16.3638 36.7833 16.1448 36.6216 15.9828L33.9373 13.2922C33.601 12.9551 33.0575 12.9551 32.7212 13.2922L31.5456 14.4698C31.2798 14.7362 30.8773 14.8034 30.5651 14.6335C29.969 14.3077 29.1598 13.9957 28.0916 13.6801C27.7553 13.581 27.5204 13.2491 27.5204 12.8715V11.2069C27.5204 10.731 27.1351 10.3448 26.6603 10.3448H23.2201C22.7453 10.3448 22.36 10.731 22.36 11.2069V12.8698C22.36 13.2465 22.1252 13.5793 21.7889 13.6784C20.7215 13.9939 19.9122 14.3059 19.3162 14.6309C19.004 14.8016 18.6015 14.7343 18.3358 14.468L17.161 13.2905C16.8246 12.9534 16.2811 12.9534 15.9449 13.2905L13.2606 15.981C13.0988 16.1422 13.0086 16.3621 13.0086 16.5905C13.0086 16.8189 13.0989 17.0379 13.2606 17.2L14.4363 18.3784C14.7012 18.6448 14.7682 19.0491 14.5988 19.3611C14.2728 19.9602 13.9624 20.7714 13.6484 21.8404C13.5495 22.1775 13.2184 22.4128 12.8417 22.4128H11.1809C10.7062 22.4128 10.3208 22.7991 10.3208 23.2749V26.7232C10.3208 27.1991 10.7062 27.5853 11.1809 27.5853H12.8426C13.2185 27.5853 13.5504 27.8206 13.6493 28.1577C13.9632 29.2258 14.2737 30.037 14.5996 30.637C14.7691 30.9499 14.7028 31.3534 14.4371 31.6197L13.2614 32.7982C13.0997 32.9594 13.0095 33.1792 13.0095 33.4076C13.0095 33.6361 13.0998 33.8551 13.2614 34.0171L15.9457 36.7076C16.2821 37.0447 16.8256 37.0447 17.1618 36.7076L18.3375 35.5301C18.6033 35.2637 19.0067 35.1974 19.3172 35.3663C19.9133 35.6922 20.7225 36.0042 21.7907 36.3197C22.127 36.4189 22.3619 36.7508 22.3619 37.1283V38.793C22.3619 39.2689 22.7472 39.6551 23.222 39.6551H26.6622C27.137 39.6551 27.5223 39.2689 27.5205 38.793V37.1301C27.5205 36.7533 27.7554 36.4206 28.0925 36.3215C29.1598 36.006 29.9691 35.6947 30.5651 35.369C30.8773 35.1983 31.2799 35.2655 31.5456 35.5318L32.7212 36.7094C33.0576 37.0465 33.6011 37.0465 33.9373 36.7094L36.6216 34.0189C36.7834 33.8576 36.8736 33.6378 36.8736 33.4094C36.8736 33.181 36.7833 32.9619 36.6216 32.7999L35.4459 31.6215C35.1802 31.3551 35.114 30.9508 35.2834 30.6388C35.6094 30.0397 35.9207 29.2284 36.2339 28.1595C36.3328 27.8224 36.6639 27.587 37.0406 27.587H38.7014C39.1761 27.587 39.5615 27.2008 39.5615 26.7249V23.2767C39.5614 22.8008 39.1761 22.4146 38.7014 22.4146ZM37.8439 25.8612H37.0432C35.9096 25.8612 34.8991 26.6051 34.586 27.6706C34.3074 28.6206 34.0425 29.3215 33.775 29.812C33.2436 30.7913 33.431 32.0353 34.2326 32.8388L34.7993 33.4077L33.3311 34.8793L32.7644 34.3112C31.9628 33.5078 30.7217 33.319 29.7447 33.8527C29.2562 34.1191 28.5569 34.3854 27.6082 34.6655C26.5443 34.9793 25.8021 35.9923 25.8021 37.1284V37.9311H24.0836V37.1293C24.0836 35.9931 23.3405 34.9802 22.2784 34.6672C21.3288 34.3861 20.6297 34.1206 20.141 33.8534C19.1649 33.3198 17.9237 33.5086 17.1222 34.312L16.5554 34.8801L15.0873 33.4085L15.6549 32.8396C16.4556 32.0362 16.644 30.7921 16.1116 29.8128C15.8449 29.3223 15.5792 28.6214 15.3006 27.6714C14.9875 26.6059 13.9769 25.8619 12.8434 25.8619H12.0427V24.1378H12.8434C13.977 24.1378 14.9884 23.3939 15.3006 22.3284C15.5792 21.3784 15.8441 20.6784 16.1116 20.187C16.643 19.2085 16.4547 17.9637 15.654 17.1611L15.0864 16.5921L16.5546 15.1206L17.1213 15.6886C17.9221 16.492 19.164 16.6817 20.141 16.1472C20.6287 15.8808 21.3279 15.6145 22.2766 15.3343C23.3405 15.0206 24.0827 14.0076 24.0827 12.8714V12.0688H25.8029V12.8697C25.8029 14.0059 26.5451 15.0188 27.6081 15.3318C28.5568 15.6128 29.2561 15.8784 29.7446 16.1456C30.7207 16.6792 31.9627 16.4904 32.7634 15.687L33.331 15.1189L34.7992 16.5905L34.2325 17.1594C33.4309 17.962 33.2425 19.2069 33.7749 20.1862C34.0424 20.6767 34.3073 21.3776 34.5859 22.3276C34.899 23.3931 35.9096 24.137 37.0431 24.137H37.8439V25.8612Z" fill="#0F68E4"/>
<path d="M24.942 18.1034C21.1483 18.1034 18.0615 21.1973 18.0615 25C18.0615 28.8026 21.1482 31.8965 24.942 31.8965C28.7358 31.8965 31.8226 28.8026 31.8226 25C31.8226 21.1973 28.7358 18.1034 24.942 18.1034ZM24.942 30.1724C22.0969 30.1724 19.7816 27.8526 19.7816 25C19.7816 22.1473 22.0969 19.8275 24.942 19.8275C27.7872 19.8275 30.1025 22.1474 30.1025 25C30.1025 27.8525 27.788 30.1724 24.942 30.1724Z" fill="#0F68E4"/>
</svg>
