<svg width="100" height="43" viewBox="0 0 100 43" fill="none" xmlns="http://www.w3.org/2000/svg">
<path d="M1.82791 9.48H12.7959V12.768H5.90791V16.752H12.3159V19.824H5.90791V27H1.82791V9.48ZM16.4379 27V9.48H20.9259V27H16.4379ZM24.9373 27V9.48H28.9213L35.1373 20.232H35.1853V9.48H39.1693V27H35.1853L28.9693 16.248H28.9213V27H24.9373Z" fill="white"/>
<path d="M53.2327 20.632H53.1847L50.9767 34H46.2247L42.3367 16.48H46.4647L48.6727 29.848H48.7207L50.7847 16.48H55.7527L57.7927 29.848H57.8407L60.0727 16.48H64.1047L60.2167 34H55.4647L53.2327 20.632ZM67.141 34V16.48H71.629V34H67.141ZM79.7204 16.48V23.992H79.7684L85.0724 16.48H89.8004L83.5604 24.88L90.0404 34H85.3124L79.7684 25.768H79.7204V34H75.6404V16.48H79.7204ZM92.852 34V16.48H97.34V34H92.852Z" fill="white"/>
<line x1="42" y1="11" x2="99" y2="11" stroke="white" stroke-width="2"/>
<line x1="1" y1="33" x2="41" y2="33" stroke="white" stroke-width="2"/>
</svg>
