<svg width="18" height="19" viewBox="0 0 18 19" fill="none" xmlns="http://www.w3.org/2000/svg">
<path d="M3.63384 12.7905C5.40922 14.9065 7.54639 16.5726 9.98568 17.7515C10.9144 18.1903 12.1564 18.7109 13.5402 18.8002C13.626 18.8039 13.708 18.8076 13.7938 18.8076C14.7225 18.8076 15.4685 18.4878 16.0764 17.8296C16.0802 17.8258 16.0876 17.8184 16.0914 17.811C16.3077 17.5506 16.5538 17.3163 16.8112 17.0672C16.9865 16.8998 17.1655 16.725 17.3371 16.5465C18.1315 15.721 18.1315 14.6722 17.3296 13.8727L15.088 11.6376C14.7076 11.2434 14.2526 11.0352 13.7751 11.0352C13.2977 11.0352 12.839 11.2434 12.4473 11.6339L11.1121 12.9653C10.989 12.8946 10.8622 12.8314 10.7428 12.7719C10.5936 12.6975 10.4556 12.6269 10.3325 12.5488C9.11664 11.779 8.01262 10.7749 6.95709 9.48441C6.42373 8.8113 6.06567 8.24603 5.81577 7.6696C6.16637 7.3535 6.49459 7.02252 6.81162 6.69898C6.92352 6.58369 7.03914 6.46841 7.15477 6.35312C7.55758 5.95148 7.77391 5.48663 7.77391 5.01433C7.77391 4.54203 7.56131 4.07717 7.15477 3.67554L6.04329 2.56731C5.91274 2.43715 5.78966 2.31071 5.66285 2.18055C5.41668 1.92767 5.15933 1.66735 4.9057 1.43306C4.52153 1.05745 4.07023 0.860352 3.59281 0.860352C3.11913 0.860352 2.66409 1.05745 2.26501 1.43678L0.870064 2.82763C0.362812 3.3334 0.0756175 3.94701 0.0159408 4.65732C-0.0549253 5.54613 0.109186 6.49072 0.534382 7.63241C1.1871 9.39888 2.17176 11.0389 3.63384 12.7905ZM0.92601 4.73541C0.970768 4.2408 1.16099 3.82801 1.51905 3.471L2.90653 2.08758C3.12286 1.87932 3.36157 1.77147 3.59281 1.77147C3.82033 1.77147 4.05158 1.87932 4.26418 2.09502C4.51407 2.32559 4.74905 2.56731 5.00267 2.82391C5.12949 2.95408 5.26003 3.08424 5.39057 3.21812L6.50205 4.32634C6.7333 4.55691 6.85265 4.7912 6.85265 5.02177C6.85265 5.25234 6.7333 5.48663 6.50205 5.7172C6.38643 5.83248 6.2708 5.95148 6.15518 6.06677C5.80831 6.41634 5.48382 6.74732 5.12576 7.06343C5.1183 7.07086 5.11457 7.07458 5.10711 7.08202C4.79754 7.39069 4.84602 7.68448 4.92062 7.90761C4.92435 7.91877 4.92808 7.9262 4.93181 7.93736C5.219 8.62535 5.61809 9.27987 6.24097 10.0608C7.3599 11.4368 8.53852 12.5041 9.83649 13.326C9.99687 13.4301 10.1684 13.5119 10.3288 13.5938C10.478 13.6681 10.616 13.7388 10.7391 13.8169C10.754 13.8243 10.7652 13.8318 10.7801 13.8392C10.9032 13.9024 11.0226 13.9322 11.1419 13.9322C11.4403 13.9322 11.6342 13.7425 11.6977 13.6793L13.0926 12.2884C13.3089 12.0727 13.5439 11.9575 13.7751 11.9575C14.0586 11.9575 14.2899 12.1322 14.4353 12.2884L16.6844 14.5272C17.132 14.9735 17.1282 15.4569 16.6732 15.9292C16.5165 16.0966 16.3524 16.2565 16.1771 16.4238C15.916 16.6767 15.6438 16.937 15.3976 17.2308C14.9687 17.692 14.4577 17.9076 13.7975 17.9076C13.7341 17.9076 13.667 17.9039 13.6036 17.9002C12.3802 17.8221 11.2426 17.3461 10.3885 16.9407C8.06856 15.8214 6.0321 14.2334 4.3425 12.2178C2.95129 10.548 2.01511 8.99352 1.39596 7.32747C1.0118 6.30478 0.866334 5.48291 0.92601 4.73541Z" fill="#BFBFBF"/>
</svg>
